# xmcd
#
# Track frame offsets: 
#        150
#        15134
#        29867
#        50264
#        64349
#        80964
#        98056
#        117604
#        131196
#        147420
#        166395
#        178809
#
# Disc length: 2664 seconds
#
# Revision: 0
# Processed by: cddbd v1.5.2PL0 Copyright (c) Steve Scherf et al.
# Submitted via: ExactAudioCopy v1.0b1
#
DISCID=b20a660c
DTITLE=Jeff Jackson - When We Were Cowboys
DYEAR=2010
DGENRE=Country
TTITLE0=My Way
TTITLE1=When We Were Cowboys
TTITLE2=Around
TTITLE3=Maybe Someday
TTITLE4=New Beginning
TTITLE5=A Woman Like That
TTITLE6=Makin' It In The USA
TTITLE7=Outta Here
TTITLE8=Heartache Closer To You
TTITLE9=Through The Glass
TTITLE10=Me And My Guitar
TTITLE11=God Knows My Heart
EXTD=
EXTT0=
EXTT1=
EXTT2=
EXTT3=
EXTT4=
EXTT5=
EXTT6=
EXTT7=
EXTT8=
EXTT9=
EXTT10=
EXTT11=
PLAYORDER=
